<svg xmlns="http://www.w3.org/2000/svg" viewBox="0 0 64 64" role="img" aria-label="Chess Board">
  <rect width="64" height="64" rx="10" fill="#0f172a"/>
  <g transform="translate(8 8)">
    <rect width="48" height="48" fill="#f8fafc"/>
    <g fill="#1f2937">
      <rect x="0" y="0" width="6" height="6"/><rect x="12" y="0" width="6" height="6"/><rect x="24" y="0" width="6" height="6"/><rect x="36" y="0" width="6" height="6"/>
      <rect x="6" y="6" width="6" height="6"/><rect x="18" y="6" width="6" height="6"/><rect x="30" y="6" width="6" height="6"/><rect x="42" y="6" width="6" height="6"/>
      <rect x="0" y="12" width="6" height="6"/><rect x="12" y="12" width="6" height="6"/><rect x="24" y="12" width="6" height="6"/><rect x="36" y="12" width="6" height="6"/>
      <rect x="6" y="18" width="6" height="6"/><rect x="18" y="18" width="6" height="6"/><rect x="30" y="18" width="6" height="6"/><rect x="42" y="18" width="6" height="6"/>
      <rect x="0" y="24" width="6" height="6"/><rect x="12" y="24" width="6" height="6"/><rect x="24" y="24" width="6" height="6"/><rect x="36" y="24" width="6" height="6"/>
      <rect x="6" y="30" width="6" height="6"/><rect x="18" y="30" width="6" height="6"/><rect x="30" y="30" width="6" height="6"/><rect x="42" y="30" width="6" height="6"/>
      <rect x="0" y="36" width="6" height="6"/><rect x="12" y="36" width="6" height="6"/><rect x="24" y="36" width="6" height="6"/><rect x="36" y="36" width="6" height="6"/>
      <rect x="6" y="42" width="6" height="6"/><rect x="18" y="42" width="6" height="6"/><rect x="30" y="42" width="6" height="6"/><rect x="42" y="42" width="6" height="6"/>
    </g>
  </g>
</svg>

